<?xml version="1.0" standalone="no"?>
<!DOCTYPE svg PUBLIC "-//W3C//DTD SVG 20010904//EN"
 "http://www.w3.org/TR/2001/REC-SVG-20010904/DTD/svg10.dtd">
<svg version="1.0" xmlns="http://www.w3.org/2000/svg"
 width="500.000000pt" height="500.000000pt" viewBox="0 0 500.000000 500.000000"
 preserveAspectRatio="xMidYMid meet">
<metadata>
Created by potrace 1.14, written by Peter Selinger 2001-2017
</metadata>
<g transform="translate(0.000000,500.000000) scale(0.100000,-0.100000)"
fill="#000000" stroke="none">
<path d="M2210 4979 c-25 -3 -69 -9 -99 -13 -142 -17 -384 -84 -551 -153 -321
-133 -590 -312 -827 -552 -477 -481 -730 -1098 -728 -1776 2 -751 337 -1448
930 -1931 228 -186 580 -369 875 -455 90 -26 290 -66 380 -75 86 -8 543 -9
610 -1 409 52 764 184 1100 411 58 39 110 76 115 82 6 6 17 15 26 20 49 27
245 214 352 336 56 64 145 185 209 283 362 556 482 1260 326 1925 -161 688
-616 1279 -1243 1617 -288 155 -557 240 -897 283 -91 11 -501 11 -578 -1z"/>
</g>
</svg>
